<svg width="436" height="138" viewBox="0 0 436 138" fill="none" xmlns="http://www.w3.org/2000/svg">
<path d="M90.4475 116.396H66.3551L51.1058 89.6535L39.0595 68.5232L39.0605 68.5215L11.766 20.6361H35.8582L51.1078 47.3786L63.1538 68.5232L63.1528 68.5249L90.4475 116.396Z" fill="#3B82F6"/>
<path opacity="0.69" d="M90.4475 116.396H66.3551L51.1058 89.6535L39.0595 68.5232L39.0605 68.5215L11.766 20.6361H35.8582L51.1078 47.3786L63.1538 68.5232L63.1528 68.5249L90.4475 116.396Z" fill="url(#paint0_linear_19_3)"/>
<path d="M63.1528 68.5214L63.1538 68.5231L51.1078 89.6534L24.0909 137.032H0L39.0605 68.5248L39.0595 68.5231L51.1058 47.3785L78.1223 0H102.21L63.1528 68.5214Z" fill="#3B82F6"/>
<path d="M138.325 117.315C118.206 117.315 101.836 100.946 101.836 80.826C101.836 60.7048 118.206 44.3357 138.325 44.3357C158.447 44.3357 174.816 60.7048 174.816 80.826C174.816 100.946 158.447 117.315 138.325 117.315ZM138.325 62.6517C128.305 62.6517 120.152 70.8053 120.152 80.8259C120.152 90.8466 128.305 98.9988 138.325 98.9988C148.346 98.9988 156.5 90.8466 156.5 80.8259C156.5 70.8053 148.346 62.6517 138.325 62.6517Z" fill="#3B82F6"/>
<path d="M244.48 90.7968H264.406C260.118 106.265 245.909 117.643 229.097 117.643C208.888 117.643 192.443 101.199 192.443 80.9896C192.443 60.7805 208.888 44.3357 229.097 44.3357C245.909 44.3357 260.118 55.714 264.406 71.1822H244.48C241.239 66.1017 235.55 62.7334 229.097 62.7334C219.034 62.7334 210.841 70.9274 210.841 80.9896C210.841 91.0515 219.034 99.2455 229.097 99.2455C235.55 99.2455 241.239 95.8775 244.48 90.7968Z" fill="#3B82F6"/>
<path d="M283.18 44.0123H301.204V114.214H283.18V44.0123Z" fill="#3B82F6"/>
<path d="M292.192 37.3917C298.318 37.3917 303.283 32.4257 303.283 26.2999C303.283 20.174 298.318 15.2081 292.192 15.2081C286.066 15.2081 281.1 20.174 281.1 26.2999C281.1 32.4257 286.066 37.3917 292.192 37.3917Z" fill="#3B82F6"/>
<path d="M393.766 80.6686C393.766 60.6348 377.467 44.3357 357.433 44.3357C337.398 44.3357 321.099 60.6348 321.099 80.6686C321.099 100.704 337.398 117.003 357.433 117.003C364.02 117.003 370.196 115.232 375.529 112.156V116.351H393.766V81.0082H393.758C393.759 80.8945 393.766 80.7825 393.766 80.6686ZM357.433 98.7653C347.456 98.7653 339.337 90.6465 339.337 80.6686C339.337 70.6908 347.456 62.5734 357.433 62.5734C367.411 62.5734 375.529 70.6908 375.529 80.6686C375.529 90.6465 367.411 98.7653 357.433 98.7653Z" fill="#3B82F6"/>
<path d="M435.293 116.381H416.869V20.6212H435.293L435.293 116.381Z" fill="#3B82F6"/>
<defs>
<linearGradient id="paint0_linear_19_3" x1="20.4257" y1="49.8211" x2="87.6162" y2="90.7627" gradientUnits="userSpaceOnUse">
<stop stop-opacity="0"/>
<stop offset="0.34833" stop-opacity="0.9"/>
<stop offset="0.47484" stop-opacity="0.9"/>
<stop offset="0.59004" stop-opacity="0.9"/>
<stop offset="1" stop-opacity="0"/>
</linearGradient>
</defs>
</svg>
